<?xml version="1.0" encoding="utf-8"?>
<!-- Generator: Adobe Illustrator 22.1.0, SVG Export Plug-In . SVG Version: 6.00 Build 0)  -->
<svg version="1.1" id="Layer_1" xmlns="http://www.w3.org/2000/svg" xmlns:xlink="http://www.w3.org/1999/xlink" x="0px" y="0px"
	 viewBox="0 0 1280 450" style="enable-background:new 0 0 1280 450;" xml:space="preserve">
<style type="text/css">
	.st0{fill:#D1010F;}
	.st1{opacity:0.6;fill:none;stroke:#B6020E;stroke-width:1.1;enable-background:new    ;}
	.st2{fill:none;stroke:#C10713;}
</style>
<title>footer bg</title>
<desc>Created with Sketch.</desc>
<g id="footer-bg" transform="translate(640.000000, 225.000000) scale(-1, 1) translate(-640.000000, -225.000000) ">
	<g id="Mask">
		<path class="st0" d="M0,450h1280V0L819.5,32.1L499.3,54.4L141.7,79.3c-14.3,1-26.5,10.6-30.9,24.3L0,450z"/>
	</g>
</g>
<path class="st1" d="M780.7,54.4c12.9,13.2,18.3,27.4,7.6,49.2c-37.8,76.9-150.7,10.5-191.7,30.5c-71.3,34.7-64.1,178.3-159.3,134.6
	c-39.5-18.1-112.2-123.8-91.8-168.2c30.2-66,72.4-55.9,115-68.4"/>
<path class="st2" d="M0,271.5c44.4-48.5,71.7-118.2,123.6-96.4c49.6,20.8,47.5,55.5,36.3,84c-7.6,19.4-20.9,25.9-19.7,62
	c2.4,70,69.4,83.8,34.7,128.9"/>
<path class="st2" d="M746.7,450c2.9-12.7,7.8-23.2,15.3-30c76.4-69.5,115.7,8.4,194.8-27.6c88.9-40.4,125.3-185.2,204-149
	c58.8,27.1,54.9,68.8,40.2,102.6c-4.2,9.7-9.6,16.7-14.3,24.7c-1.8,3.1-3.5,6.3-5.1,10c-4,9.3-6.8,21.1-6.8,39.2
	c0,8.7,1.8,19.6,4.3,30"/>
</svg>
